<svg version="1.2" xmlns="http://www.w3.org/2000/svg" viewBox="0 0 5000 5000" width="5000" height="5000">
	<title>Nowy projekt</title>
	<style>
		.s0 { fill: #0997c5 } 
		.s1 { fill: #ffffff } 
	</style>
	<path id="Kształt 2" class="s0" d="m2520 4937c-1343.8 0-2430-1086.2-2430-2430 0-1343.8 1086.2-2430 2430-2430 1343.8 0 2430 1086.2 2430 2430 0 1343.8-1086.2 2430-2430 2430z"/>
	<path id="OIO" class="s1" aria-label="OIO"  d="m1142.4 1243.1q396.7 0 688.9 285.8 292.2 285.8 292.2 723.8 0 408.7-278.8 707.9-278.8 296.5-678.2 296.5-415.5 0-702.3-293.9-284.2-293.8-284.2-699.8 0-221.7 80.4-414 80.4-195 214.5-325.9 134-130.9 308.3-205.7 174.2-74.7 359.2-74.7zm8 1541.2q193 0 345.8-144.3 152.8-144.2 152.8-389.9 0-240.4-155.5-387.4-152.8-146.9-340.4-146.9-193 0-345.8 149.6-152.8 146.9-152.8 387.3 0 235.1 152.8 384.7 155.5 146.9 343.1 146.9zm1147.4 203v-1485.2q0-61.4 2.6-90.8 5.4-32 26.8-72.1 21.5-40.1 72.4-56.1 51-16 136.7-16 69.7 0 115.3 13.3 45.6 13.4 69.7 32.1 24.1 18.7 34.9 56.1 13.4 34.7 13.4 61.4 2.6 24.1 2.6 74.8v1485.1q0 64.2-5.3 93.5-2.7 29.4-24.1 69.5-21.5 40-72.4 56.1-51 16-136.7 16-69.7 0-115.3-13.4-45.6-13.3-69.7-32-24.1-18.7-37.5-53.4-10.8-37.4-13.4-61.5 0-26.7 0-77.4zm1611.1-1744.2q396.7 0 688.9 285.8 292.2 285.8 292.2 723.8 0 408.7-278.8 707.9-278.8 296.5-678.2 296.5-415.5 0-702.4-293.9-284.1-293.8-284.1-699.8 0-221.7 80.4-414 80.4-195 214.5-325.9 134-130.9 308.2-205.7 174.3-74.7 359.3-74.7zm8 1541.2q193 0 345.8-144.3 152.8-144.2 152.8-389.9 0-240.4-155.5-387.4-152.8-146.9-340.4-146.9-193 0-345.8 149.6-152.8 146.9-152.8 387.3 0 235.1 152.8 384.7 155.5 146.9 343.1 146.9z"/>
</svg>